<?xml version="1.0" encoding="utf-8"?>
<!-- Generator: Adobe Illustrator 17.0.0, SVG Export Plug-In . SVG Version: 6.00 Build 0)  -->
<!DOCTYPE svg PUBLIC "-//W3C//DTD SVG 1.1//EN" "http://www.w3.org/Graphics/SVG/1.1/DTD/svg11.dtd">
<svg version="1.1" xmlns="http://www.w3.org/2000/svg" xmlns:xlink="http://www.w3.org/1999/xlink" x="0px" y="0px" width="32px"
	 height="32px" viewBox="0 0 32 32" enable-background="new 0 0 32 32" xml:space="preserve">
<g id="Layer_3">
	<g>
		<path d="M29,13.5l0-0.5c0-0.1,0-0.1,0-0.2c-0.6-6.6-6-11.3-13-11.3C9.1,1.5,3.6,6.2,3,12.8c0,0.1,0,0.1,0,0.2l0,0.5v12.3
			c0,2.6,2,4.7,4.5,4.7c1.8,0,3.3-1.1,4.1-2.7h8.9c0.7,1.6,2.3,2.7,4.1,2.7c2.5,0,4.5-2.1,4.5-4.7L29,13.5z M27,25.8
			c0,1.5-1.1,2.7-2.5,2.7c-1.4,0-2.5-1.2-2.5-2.7H10c0,1.5-1.1,2.7-2.5,2.7c-1.4,0-2.5-1.2-2.5-2.7V13.5L5,13
			c0.5-5.6,5.3-9.5,11-9.5c5.7,0,10.5,3.9,11,9.5l0,0.5L27,25.8z"/>
		<path d="M16,5.5c-5.1,0-8.5,3.1-8.5,7.8c0,5.2,4.3,5.2,8.5,5.2c4.2,0,8.5,0,8.5-5.2C24.5,8.6,21.1,5.5,16,5.5z M16,17.5
			c-4.8,0-7.5-0.2-7.5-4.2c0-4.7,3.8-6.8,7.5-6.8c3.7,0,7.5,2.1,7.5,6.8C23.5,17.3,20.8,17.5,16,17.5z"/>
		<path d="M22.5,19.5c-1.1,0-2,0.9-2,2c0,1.1,0.9,2,2,2c1.1,0,2-0.9,2-2C24.5,20.4,23.6,19.5,22.5,19.5z M22.5,22.5
			c-0.6,0-1-0.4-1-1c0-0.5,0.5-1,1-1c0.6,0,1,0.4,1,1C23.5,22,23,22.5,22.5,22.5z"/>
		<path d="M9.5,19.5c-1.1,0-2,0.9-2,2c0,1.1,0.9,2,2,2s2-0.9,2-2C11.5,20.4,10.6,19.5,9.5,19.5z M9.5,22.5c-0.6,0-1-0.4-1-1
			c0-0.5,0.5-1,1-1c0.6,0,1,0.4,1,1C10.5,22,10,22.5,9.5,22.5z"/>
		<path d="M16,7.5C16,7.5,16,7.5,16,7.5c-2,0-3.8,0.7-5,2c-1,1-1.5,2.3-1.4,3.5c0,0.3,0.2,0.5,0.5,0.5c0,0,0,0,0,0
			c0.3,0,0.5-0.3,0.5-0.5c-0.1-0.9,0.3-1.9,1.1-2.7c1-1.1,2.5-1.7,4.2-1.7c0,0,0,0,0,0c0.3,0,0.5-0.2,0.5-0.5
			C16.5,7.7,16.3,7.5,16,7.5z"/>
	</g>
</g>
<g id="Guides">
</g>
</svg>
