<?xml version="1.0" encoding="utf-8"?>
<!-- Generator: Adobe Illustrator 16.0.0, SVG Export Plug-In . SVG Version: 6.00 Build 0)  -->
<!DOCTYPE svg PUBLIC "-//W3C//DTD SVG 1.1//EN" "http://www.w3.org/Graphics/SVG/1.1/DTD/svg11.dtd">
<svg version="1.1" id="Layer_1" xmlns="http://www.w3.org/2000/svg" xmlns:xlink="http://www.w3.org/1999/xlink" x="0px" y="0px"
	 width="23.07px" height="23.07px" viewBox="0 0 23.07 23.07" style="enable-background:new 0 0 23.07 23.07;" xml:space="preserve"
	>
<path style="fill:#414042;" d="M23.021,10.471l-0.013,0.001c-0.046-0.452-0.405-0.812-0.856-0.856h-0.196h-0.331V9.609
	c-0.565,0-1.056-0.326-1.291-0.802c-0.057-0.116-0.1-0.241-0.123-0.373c-0.106-0.296-0.227-0.584-0.361-0.865
	c0-0.001,0-0.001-0.001-0.002c-0.067-0.1-0.122-0.208-0.163-0.323c0-0.001,0-0.002,0-0.002c-0.054-0.15-0.082-0.312-0.082-0.48
	c0-0.397,0.16-0.758,0.422-1.018h-0.002l0,0l0.293-0.293c0.004-0.003,0.008-0.006,0.012-0.01c0.003-0.004,0.007-0.008,0.01-0.012
	c0.342-0.353,0.359-0.9,0.055-1.273l0.006-0.004c-0.225-0.27-0.46-0.527-0.707-0.773c-0.253-0.254-0.517-0.494-0.792-0.723
	l-0.003,0.003c-0.338-0.276-0.821-0.286-1.171-0.03L17.515,2.84l-0.197,0.196l-0.009-0.009c-0.42,0.421-1.035,0.527-1.555,0.318
	c-0.07-0.027-0.139-0.062-0.204-0.102c-0.331-0.16-0.673-0.302-1.024-0.422c-0.062-0.016-0.123-0.036-0.184-0.061
	c0,0-0.001,0-0.002-0.002c-0.172-0.068-0.334-0.175-0.475-0.314c-0.234-0.235-0.371-0.531-0.41-0.838c-0.016-0.12-0.016-0.24,0-0.36
	V1c0-0.473-0.342-0.865-0.791-0.945c-0.056-0.006-0.111-0.01-0.168-0.015h-0.001C12.178,0.014,11.858,0,11.535,0
	s-0.643,0.014-0.96,0.04h-0.001c-0.057,0.005-0.112,0.009-0.169,0.015C9.956,0.135,9.615,0.527,9.615,1v0.428
	c0,0.619-0.389,1.146-0.937,1.35c-0.034,0.014-0.07,0.025-0.106,0.035C8.188,2.943,7.815,3.098,7.457,3.275
	C7.455,3.276,7.455,3.277,7.453,3.277C7.425,3.293,7.396,3.307,7.366,3.32C7.184,3.404,6.981,3.451,6.768,3.451
	c-0.397,0-0.758-0.162-1.018-0.422L5.747,3.031L5.443,2.729C5.109,2.395,4.593,2.357,4.219,2.617
	c-0.043,0.035-0.086,0.07-0.127,0.105C4.09,2.725,4.088,2.727,4.086,2.729c-0.245,0.207-0.48,0.424-0.707,0.65
	C3.152,3.604,2.936,3.84,2.729,4.084c0,0-0.001,0-0.001,0.002C2.691,4.129,2.654,4.173,2.619,4.217
	C2.357,4.592,2.395,5.109,2.729,5.443l0.303,0.303c0.436,0.437,0.533,1.083,0.293,1.613c-0.016,0.033-0.031,0.066-0.05,0.098
	c-0.177,0.357-0.331,0.729-0.46,1.111c-0.012,0.041-0.025,0.08-0.041,0.119c0,0,0,0,0,0.002c-0.07,0.182-0.179,0.354-0.326,0.5
	C2.166,9.471,1.799,9.611,1.43,9.611v0.004H1c-0.473,0-0.865,0.341-0.945,0.79c-0.006,0.056-0.011,0.112-0.016,0.169l0,0
	C0.014,10.885,0,11.219,0,11.535l0,0c0,0.003,0,0.006,0,0.008c0,0.003,0,0.006,0,0.008l0,0c0,0.318,0.014,0.633,0.039,0.943v0.002
	c0.005,0.056,0.01,0.111,0.016,0.168c0.08,0.449,0.472,0.791,0.943,0.791c0,0,0,0,0.002,0h0.43l0,0c0.613,0,1.136,0.384,1.344,0.924
	c0,0.001,0,0.002,0,0.002c0.014,0.036,0.026,0.072,0.035,0.108c0.002,0.002,0.002,0.004,0.004,0.007
	c0.129,0.383,0.284,0.756,0.461,1.115c0.002,0.002,0.003,0.004,0.004,0.006c0.016,0.027,0.029,0.057,0.043,0.086
	c0.084,0.183,0.131,0.387,0.131,0.6c0,0.397-0.161,0.758-0.422,1.019l0.002,0.002l-0.293,0.293
	c-0.004,0.003-0.008,0.007-0.012,0.011s-0.008,0.008-0.011,0.012c-0.319,0.33-0.356,0.834-0.107,1.203
	c0.042,0.051,0.084,0.102,0.126,0.15c0.205,0.242,0.42,0.475,0.645,0.699l0,0c0.225,0.225,0.459,0.441,0.701,0.646
	c0.049,0.041,0.098,0.082,0.146,0.123c0.333,0.225,0.775,0.217,1.102-0.021l0.211-0.211l0.197-0.197l0.009,0.008
	c0.437-0.436,1.085-0.533,1.616-0.291c0.027,0.012,0.055,0.025,0.08,0.039c0.002,0.002,0.005,0.002,0.007,0.004
	c0.361,0.18,0.737,0.336,1.124,0.467c0.033,0.01,0.066,0.021,0.099,0.033c0.188,0.07,0.366,0.18,0.519,0.332
	c0.281,0.281,0.422,0.648,0.422,1.018h0.004v0.42c0,0.496,0.377,0.906,0.861,0.955v0.006c0.349,0.033,0.701,0.049,1.059,0.049
	s0.709-0.016,1.059-0.049l-0.001-0.006c0.483-0.049,0.862-0.459,0.862-0.955v-0.428c0-0.578,0.34-1.076,0.83-1.305
	c0.1-0.047,0.205-0.082,0.314-0.105c0.316-0.111,0.623-0.238,0.922-0.383c0.086-0.057,0.18-0.104,0.277-0.139
	c0.156-0.059,0.326-0.092,0.504-0.092c0.365,0,0.699,0.137,0.954,0.363c0.044,0.037,0.085,0.078,0.124,0.123l0.245,0.246
	l0.001-0.002c0.338,0.338,0.867,0.371,1.242,0.1c0.002,0,0.003-0.002,0.004-0.004c0.031-0.025,0.062-0.051,0.092-0.076
	c0.252-0.213,0.494-0.436,0.727-0.668s0.455-0.475,0.668-0.727c0.027-0.033,0.055-0.066,0.082-0.1
	c0.264-0.361,0.24-0.865-0.065-1.204l-0.001-0.001l-0.068-0.068l0,0l-0.268-0.269v-0.001c-0.43-0.43-0.531-1.062-0.305-1.588
	c0.021-0.049,0.045-0.098,0.072-0.145c0.17-0.346,0.319-0.705,0.445-1.074c0.014-0.049,0.029-0.098,0.049-0.145
	c0.069-0.18,0.178-0.348,0.322-0.493c0.28-0.28,0.648-0.421,1.018-0.421v-0.002h0.414v-0.006c0.513,0,0.933-0.403,0.958-0.91
	l0.015,0.002c0.028-0.332,0.043-0.668,0.043-1.006C23.07,11.176,23.054,10.821,23.021,10.471z M17.432,11.535L17.432,11.535
	c0,0.672-0.111,1.318-0.318,1.92c-0.078,0.229-0.171,0.452-0.275,0.668c-0.287,0.59-0.672,1.125-1.129,1.586
	c-0.459,0.46-0.992,0.845-1.581,1.135c-0.218,0.107-0.442,0.201-0.673,0.281c-0.602,0.209-1.248,0.322-1.92,0.324
	c-0.006,0-0.012,0-0.018,0c-0.666,0-1.305-0.109-1.902-0.312c-0.24-0.08-0.473-0.178-0.696-0.287
	c-0.587-0.287-1.118-0.668-1.575-1.124c-0.461-0.458-0.846-0.991-1.135-1.58c-0.109-0.223-0.206-0.453-0.287-0.69
	c-0.205-0.598-0.317-1.238-0.318-1.906c0.002-0.666,0.113-1.336,0.318-1.934C6.003,9.378,6.1,9.147,6.209,8.925
	c0.29-0.589,0.674-1.122,1.135-1.58C7.805,6.886,8.34,6.502,8.93,6.215C9.15,6.107,9.379,6.014,9.615,5.934
	c0.598-0.203,1.236-0.312,1.902-0.312c0.006,0,0.012,0,0.018,0c0.672,0.002,1.318,0.116,1.92,0.324
	c0.23,0.08,0.455,0.174,0.672,0.281c0.59,0.29,1.123,0.676,1.581,1.135c0.456,0.459,0.837,0.99,1.124,1.575
	c0.107,0.219,0.201,0.445,0.281,0.679c0.206,0.6,0.318,1.244,0.318,1.914V11.535z"/>
</svg>
